# xmcd
#
# Track frame offsets:
#	150
#	21152
#	35649
#	48203
#	61990
#	77754
#	94294
#	112438
#	131099
#	146691
#	163588
#	181620
#	198301
#	212979
#	230200
#	248909
#	266650
#	283420
#	301939
#	317686
#	328881
#	343622
#
# Disc length: 4788 seconds
#
# Revision: 0
# Processed by: cddbd v1.5.2PL0 Copyright (c) Steve Scherf et al.
# Submitted via: EasyCDDAExtractor 8.2.3.1
#
DISCID=5812b216
DTITLE=Various Artist - It's Country Blues  part4 CD2
DYEAR=2007
DGENRE=Country
TTITLE0=BIG HOUSE - I Walk Alone
TTITLE1=NORAH JONES - The Long Way Home
TTITLE2=ALBERT LEE and HOGAN'SW HEROES - Singing The Blues
TTITLE3=CHRIS ISAAK - Back On Your Side
TTITLE4=J.J.CALE and ERIC CLAPTON - Dead End Road
TTITLE5=REBA McENTIRE - I'm Not Your Girl
TTITLE6=ROGER GLOVER - Burn Me Up Slowly
TTITLE7=NEAL BLACK - The King Of San Antone
TTITLE8=ALBERT LEE and HOGAN'S HEROES - Gone Too Long
TTITLE9=GEORGE THOROGOOD - Dynaflow Blues
TTITLE10=The HOLMES BROTHERS - Ain't It Funny What A Fool Will Do
TTITLE11=MARIA MULDAUR - You Ain't Goin' Nowhere
TTITLE12=TOM PETTY - Flirting With Time
TTITLE13=BILL PERRY - I Don't Know Nothin' Bout Love
TTITLE14=TOM PRINCIPATO - Drinkin' Wine Spo-Dee-O-Dee
TTITLE15=J.J.CALE and ERIC CLAPTON - Anyway The Wind Blows
TTITLE16=KEB' MO' - (What's So Funny 'Bout) Peace, Love And Understanding
TTITLE17=JOHN HAMMOND - Serve Me Right To Suffer
TTITLE18=NORAH JONES - What Am I To You
TTITLE19=CHRIS ISAAK - Yellow Bird
TTITLE20=WILLIE NELSON and J.J.CALE - Motormouth
TTITLE21=RUDY ROTTA - Who'll stop the rain
EXTD=
EXTT0=
EXTT1=
EXTT2=
EXTT3=
EXTT4=
EXTT5=
EXTT6=
EXTT7=
EXTT8=
EXTT9=
EXTT10=
EXTT11=
EXTT12=
EXTT13=
EXTT14=
EXTT15=
EXTT16=
EXTT17=
EXTT18=
EXTT19=
EXTT20=
EXTT21=
PLAYORDER=
